<mxfile host="app.diagrams.net" modified="2023-12-24T10:16:39.149Z" agent="Mozilla/5.0 (Windows NT 10.0; Win64; x64) AppleWebKit/537.36 (KHTML, like Gecko) Chrome/120.0.0.0 Safari/537.36" etag="Ay5Ko1EjAHHypGC7Bd_h" version="22.1.11" type="github">
  <diagram name="第 1 页" id="kpRdOP-cegpDwVum6LJx">
    <mxGraphModel dx="1198" dy="1100" grid="1" gridSize="10" guides="1" tooltips="1" connect="1" arrows="1" fold="1" page="1" pageScale="1" pageWidth="827" pageHeight="1169" math="0" shadow="0">
      <root>
        <mxCell id="0" />
        <mxCell id="1" parent="0" />
        <mxCell id="U-B1wDjkjIRc-qEmcaX7-3" style="edgeStyle=orthogonalEdgeStyle;rounded=0;orthogonalLoop=1;jettySize=auto;html=1;exitX=1;exitY=0.5;exitDx=0;exitDy=0;" edge="1" parent="1" source="U-B1wDjkjIRc-qEmcaX7-1" target="U-B1wDjkjIRc-qEmcaX7-2">
          <mxGeometry relative="1" as="geometry" />
        </mxCell>
        <mxCell id="U-B1wDjkjIRc-qEmcaX7-1" value="score" style="whiteSpace=wrap;html=1;" vertex="1" parent="1">
          <mxGeometry x="120" y="550" width="70" height="30" as="geometry" />
        </mxCell>
        <mxCell id="U-B1wDjkjIRc-qEmcaX7-2" value="theseus" style="whiteSpace=wrap;html=1;" vertex="1" parent="1">
          <mxGeometry x="290" y="550" width="70" height="30" as="geometry" />
        </mxCell>
        <mxCell id="U-B1wDjkjIRc-qEmcaX7-4" value="1. 打分+选取" style="text;html=1;align=center;verticalAlign=middle;resizable=0;points=[];autosize=1;strokeColor=none;fillColor=none;" vertex="1" parent="1">
          <mxGeometry x="191" y="540" width="90" height="30" as="geometry" />
        </mxCell>
      </root>
    </mxGraphModel>
  </diagram>
</mxfile>
